# xmcd
#
# Track frame offsets:
#	150
#	18048
#	31646
#	48264
#	59998
#	78223
#	95089
#	116635
#	132956
#	149699
#	167002
#	184465
#	200834
#	219523
#
# Disc length: 3121 seconds
#
# Revision: 0
# Processed by: cddbd v1.5.2PL0 Copyright (c) Steve Scherf et al.
# Submitted via: audiograbber 1.83.01
#
DISCID=ce0c2f0e
DTITLE=Star Disk Volume 156 - Country Hits Today  SD-0156
DYEAR=2007
DGENRE=Country 
TTITLE0=Everyday America - Sugarland
TTITLE1=Another Side Of You - Joe Nichols
TTITLE2=How I Feel - Martina McBride
TTITLE3=I'll Stand By You - Carrie Underwood
TTITLE4=You Never Take Me Dancing - Travis tritt
TTITLE5=One Of The Boys - Gretchen Wilson
TTITLE6=Sunday Morning In America - Keith Anderson 
TTITLE7=The One In The Middle - Sarah Johns
TTITLE8=Last Train Running - Whiskey Falls 
TTITLE9=Say Hello To Heaven - Jamie Slocum
TTITLE10=Nothin' Like Summer - Carmen Rasmusen
TTITLE11=Video Tapes - Jason Meadows
TTITLE12=Got A Good Day - Carolyn Dawn Johnson
TTITLE13=Nobody Died - Wilkinsons
EXTD=
EXTT0=
EXTT1=
EXTT2=
EXTT3=
EXTT4=
EXTT5=
EXTT6=
EXTT7=
EXTT8=
EXTT9=
EXTT10=
EXTT11=
EXTT12=
EXTT13=
PLAYORDER=
